<svg width="225" height="43" viewBox="0 0 225 43" fill="none" xmlns="http://www.w3.org/2000/svg">
<path d="M81.6225 17.1836H77.734C77.663 16.6805 77.518 16.2337 77.299 15.843C77.08 15.4465 76.7989 15.1091 76.4556 14.831C76.1123 14.5528 75.7158 14.3397 75.266 14.1918C74.8221 14.0438 74.3397 13.9698 73.8189 13.9698C72.8778 13.9698 72.0581 14.2036 71.3597 14.6712C70.6613 15.1328 70.1198 15.8075 69.7351 16.6953C69.3504 17.5772 69.158 18.6484 69.158 19.9091C69.158 21.2053 69.3504 22.2943 69.7351 23.1761C70.1257 24.058 70.6702 24.7238 71.3686 25.1737C72.067 25.6235 72.8749 25.8484 73.7923 25.8484C74.3072 25.8484 74.7836 25.7803 75.2216 25.6442C75.6655 25.508 76.0591 25.3098 76.4023 25.0494C76.7456 24.783 77.0297 24.4605 77.2546 24.0817C77.4854 23.7029 77.6452 23.2708 77.734 22.7855L81.6225 22.8033C81.5219 23.6378 81.2704 24.4427 80.8679 25.218C80.4714 25.9875 79.9357 26.677 79.261 27.2866C78.5922 27.8903 77.7932 28.3697 76.864 28.7248C75.9407 29.074 74.8961 29.2486 73.7301 29.2486C72.1084 29.2486 70.6584 28.8816 69.38 28.1477C68.1075 27.4138 67.1013 26.3514 66.3615 24.9606C65.6276 23.5697 65.2607 21.8859 65.2607 19.9091C65.2607 17.9264 65.6335 16.2396 66.3793 14.8487C67.125 13.4579 68.1371 12.3984 69.4155 11.6705C70.6939 10.9366 72.1321 10.5696 73.7301 10.5696C74.7836 10.5696 75.7602 10.7176 76.6598 11.0135C77.5653 11.3094 78.3673 11.7415 79.0657 12.3097C79.7641 12.8719 80.3323 13.5614 80.7702 14.3782C81.2141 15.195 81.4982 16.1301 81.6225 17.1836ZM85.0041 29V10.8182H92.1774C93.5505 10.8182 94.7224 11.0638 95.693 11.555C96.6696 12.0404 97.4123 12.7299 97.9213 13.6236C98.4363 14.5114 98.6937 15.556 98.6937 16.7575C98.6937 17.9648 98.4333 19.0036 97.9125 19.8736C97.3916 20.7377 96.637 21.4006 95.6486 21.8622C94.6661 22.3239 93.4765 22.5547 92.0797 22.5547H87.2768V19.4652H91.4583C92.1922 19.4652 92.8018 19.3646 93.2871 19.1634C93.7724 18.9621 94.1335 18.6603 94.3702 18.2578C94.6129 17.8554 94.7342 17.3552 94.7342 16.7575C94.7342 16.1538 94.6129 15.6448 94.3702 15.2305C94.1335 14.8162 93.7695 14.5025 93.2782 14.2894C92.7929 14.0704 92.1803 13.9609 91.4405 13.9609H88.8482V29H85.0041ZM94.823 20.7259L99.3418 29H95.0982L90.677 20.7259H94.823ZM105.879 10.8182V29H102.035V10.8182H105.879ZM119.53 16.0472C119.459 15.3311 119.155 14.7747 118.616 14.3782C118.077 13.9817 117.347 13.7834 116.423 13.7834C115.796 13.7834 115.266 13.8722 114.834 14.0497C114.402 14.2214 114.071 14.4611 113.84 14.7688C113.615 15.0766 113.502 15.4258 113.502 15.8164C113.491 16.1419 113.559 16.426 113.707 16.6687C113.86 16.9113 114.071 17.1214 114.337 17.299C114.603 17.4706 114.911 17.6216 115.26 17.7518C115.609 17.8761 115.982 17.9826 116.379 18.0714L118.012 18.462C118.805 18.6396 119.533 18.8763 120.196 19.1722C120.859 19.4682 121.433 19.8321 121.919 20.2642C122.404 20.6963 122.78 21.2053 123.046 21.7912C123.318 22.3771 123.457 23.0489 123.463 23.8065C123.457 24.9192 123.173 25.8839 122.611 26.7006C122.055 27.5115 121.25 28.1418 120.196 28.5916C119.149 29.0355 117.885 29.2575 116.405 29.2575C114.938 29.2575 113.659 29.0326 112.57 28.5827C111.487 28.1329 110.641 27.4671 110.031 26.5852C109.427 25.6974 109.111 24.5996 109.081 23.2915H112.801C112.842 23.9012 113.017 24.4102 113.325 24.8185C113.639 25.221 114.056 25.5258 114.577 25.733C115.103 25.9342 115.698 26.0348 116.361 26.0348C117.012 26.0348 117.577 25.9401 118.057 25.7507C118.542 25.5613 118.918 25.2979 119.184 24.9606C119.451 24.6232 119.584 24.2356 119.584 23.7976C119.584 23.3892 119.462 23.0459 119.22 22.7678C118.983 22.4896 118.634 22.2528 118.172 22.0575C117.716 21.8622 117.157 21.6847 116.494 21.5249L114.514 21.0277C112.982 20.6548 111.771 20.0719 110.883 19.2788C109.996 18.4857 109.555 17.4174 109.561 16.0739C109.555 14.973 109.848 14.0112 110.44 13.1886C111.037 12.3659 111.857 11.7237 112.899 11.2621C113.94 10.8004 115.124 10.5696 116.45 10.5696C117.799 10.5696 118.977 10.8004 119.983 11.2621C120.995 11.7237 121.782 12.3659 122.345 13.1886C122.907 14.0112 123.197 14.9641 123.215 16.0472H119.53ZM143.382 19.9091C143.382 21.8918 143.006 23.5786 142.255 24.9695C141.509 26.3603 140.491 27.4227 139.201 28.1566C137.916 28.8846 136.472 29.2486 134.868 29.2486C133.252 29.2486 131.802 28.8816 130.518 28.1477C129.234 27.4138 128.219 26.3514 127.473 24.9606C126.727 23.5697 126.354 21.8859 126.354 19.9091C126.354 17.9264 126.727 16.2396 127.473 14.8487C128.219 13.4579 129.234 12.3984 130.518 11.6705C131.802 10.9366 133.252 10.5696 134.868 10.5696C136.472 10.5696 137.916 10.9366 139.201 11.6705C140.491 12.3984 141.509 13.4579 142.255 14.8487C143.006 16.2396 143.382 17.9264 143.382 19.9091ZM139.485 19.9091C139.485 18.6248 139.292 17.5417 138.908 16.6598C138.529 15.7779 137.993 15.1091 137.301 14.6534C136.608 14.1977 135.797 13.9698 134.868 13.9698C133.939 13.9698 133.128 14.1977 132.436 14.6534C131.743 15.1091 131.205 15.7779 130.82 16.6598C130.441 17.5417 130.252 18.6248 130.252 19.9091C130.252 21.1934 130.441 22.2765 130.82 23.1584C131.205 24.0402 131.743 24.709 132.436 25.1648C133.128 25.6205 133.939 25.8484 134.868 25.8484C135.797 25.8484 136.608 25.6205 137.301 25.1648C137.993 24.709 138.529 24.0402 138.908 23.1584C139.292 22.2765 139.485 21.1934 139.485 19.9091ZM146.855 29V10.8182H150.699V25.8306H158.494V29H146.855ZM165.588 29L160.617 10.8182H162.854L166.654 25.6264H166.831L170.702 10.8182H173.188L177.058 25.6264H177.236L181.036 10.8182H183.273L178.301 29H176.029L172.016 14.5114H171.874L167.861 29H165.588ZM190.805 29.2841C189.491 29.2841 188.358 28.9941 187.405 28.4141C186.458 27.8281 185.727 27.0114 185.212 25.9638C184.703 24.9103 184.448 23.6851 184.448 22.2884C184.448 20.8916 184.703 19.6605 185.212 18.5952C185.727 17.5239 186.443 16.6894 187.36 16.0916C188.284 15.4879 189.361 15.1861 190.592 15.1861C191.302 15.1861 192.003 15.3045 192.696 15.5412C193.388 15.7779 194.019 16.1626 194.587 16.6953C195.155 17.2221 195.608 17.9205 195.945 18.7905C196.282 19.6605 196.451 20.7318 196.451 22.0043V22.892H185.94V21.081H194.32C194.32 20.3116 194.167 19.625 193.859 19.0213C193.557 18.4176 193.125 17.9412 192.563 17.592C192.006 17.2428 191.349 17.0682 190.592 17.0682C189.757 17.0682 189.035 17.2753 188.426 17.6896C187.822 18.098 187.357 18.6307 187.032 19.2876C186.706 19.9446 186.544 20.6489 186.544 21.4006V22.608C186.544 23.6378 186.721 24.5108 187.076 25.2269C187.437 25.9371 187.937 26.4787 188.577 26.8516C189.216 27.2185 189.959 27.402 190.805 27.402C191.355 27.402 191.852 27.325 192.296 27.1712C192.746 27.0114 193.134 26.7746 193.459 26.4609C193.785 26.1413 194.036 25.7448 194.214 25.2713L196.238 25.8395C196.025 26.526 195.667 27.1297 195.164 27.6506C194.661 28.1655 194.039 28.5679 193.3 28.858C192.56 29.142 191.728 29.2841 190.805 29.2841ZM200.547 29V10.8182H202.643V17.5298H202.82C202.974 17.2931 203.187 16.9912 203.459 16.6243C203.738 16.2514 204.134 15.92 204.649 15.63C205.17 15.334 205.874 15.1861 206.762 15.1861C207.91 15.1861 208.922 15.4731 209.798 16.0472C210.674 16.6213 211.358 17.4351 211.849 18.4886C212.34 19.5421 212.586 20.785 212.586 22.2173C212.586 23.6615 212.34 24.9132 211.849 25.9727C211.358 27.0262 210.677 27.8429 209.807 28.4229C208.937 28.997 207.934 29.2841 206.797 29.2841C205.921 29.2841 205.22 29.1391 204.693 28.8491C204.167 28.5531 203.761 28.2187 203.477 27.8459C203.193 27.4671 202.974 27.1534 202.82 26.9048H202.572V29H200.547ZM202.607 22.1818C202.607 23.2116 202.758 24.1201 203.06 24.9073C203.362 25.6886 203.803 26.3011 204.383 26.745C204.963 27.183 205.673 27.402 206.513 27.402C207.389 27.402 208.12 27.1712 208.706 26.7095C209.298 26.242 209.742 25.6146 210.038 24.8274C210.34 24.0343 210.491 23.1525 210.491 22.1818C210.491 21.223 210.343 20.3589 210.047 19.5895C209.757 18.8142 209.316 18.2016 208.724 17.7518C208.138 17.296 207.401 17.0682 206.513 17.0682C205.661 17.0682 204.945 17.2842 204.365 17.7163C203.785 18.1424 203.347 18.7402 203.051 19.5096C202.755 20.2731 202.607 21.1638 202.607 22.1818Z" fill="black"/>
<path d="M67.8864 36.6364C67.8523 36.3485 67.714 36.125 67.4716 35.9659C67.2292 35.8068 66.9318 35.7273 66.5795 35.7273C66.322 35.7273 66.0966 35.7689 65.9034 35.8523C65.7121 35.9356 65.5625 36.0502 65.4545 36.196C65.3485 36.3419 65.2955 36.5076 65.2955 36.6932C65.2955 36.8485 65.3324 36.982 65.4062 37.0938C65.482 37.2036 65.5786 37.2955 65.696 37.3693C65.8134 37.4413 65.9366 37.5009 66.0653 37.5483C66.1941 37.5937 66.3125 37.6307 66.4205 37.6591L67.0114 37.8182C67.1629 37.858 67.3314 37.9129 67.517 37.983C67.7045 38.053 67.8835 38.1487 68.054 38.2699C68.2263 38.3892 68.3684 38.5426 68.4801 38.7301C68.5919 38.9176 68.6477 39.1477 68.6477 39.4205C68.6477 39.7348 68.5653 40.0189 68.4006 40.2727C68.2377 40.5265 67.9991 40.7282 67.6847 40.8778C67.3722 41.0275 66.9924 41.1023 66.5455 41.1023C66.1288 41.1023 65.768 41.035 65.4631 40.9006C65.16 40.7661 64.9214 40.5786 64.7472 40.3381C64.5748 40.0975 64.4773 39.8182 64.4545 39.5H65.1818C65.2008 39.7197 65.2746 39.9015 65.4034 40.0455C65.5341 40.1875 65.6989 40.2936 65.8977 40.3636C66.0985 40.4318 66.3144 40.4659 66.5455 40.4659C66.8144 40.4659 67.0559 40.4223 67.2699 40.3352C67.4839 40.2462 67.6534 40.1231 67.7784 39.9659C67.9034 39.8068 67.9659 39.6212 67.9659 39.4091C67.9659 39.2159 67.9119 39.0587 67.804 38.9375C67.696 38.8163 67.554 38.7178 67.3778 38.642C67.2017 38.5663 67.0114 38.5 66.8068 38.4432L66.0909 38.2386C65.6364 38.108 65.2765 37.9214 65.0114 37.679C64.7462 37.4366 64.6136 37.1193 64.6136 36.7273C64.6136 36.4015 64.7017 36.1174 64.8778 35.875C65.0559 35.6307 65.2945 35.4413 65.5938 35.3068C65.8949 35.1705 66.2311 35.1023 66.6023 35.1023C66.9773 35.1023 67.3106 35.1695 67.6023 35.304C67.8939 35.4366 68.125 35.6184 68.2955 35.8494C68.4678 36.0805 68.5587 36.3428 68.5682 36.6364H67.8864ZM74.9552 38.0909C74.9552 38.7045 74.8444 39.2348 74.6228 39.6818C74.4012 40.1288 74.0972 40.4735 73.7109 40.7159C73.3245 40.9583 72.8832 41.0795 72.387 41.0795C71.8908 41.0795 71.4495 40.9583 71.0632 40.7159C70.6768 40.4735 70.3728 40.1288 70.1512 39.6818C69.9296 39.2348 69.8188 38.7045 69.8188 38.0909C69.8188 37.4773 69.9296 36.947 70.1512 36.5C70.3728 36.053 70.6768 35.7083 71.0632 35.4659C71.4495 35.2235 71.8908 35.1023 72.387 35.1023C72.8832 35.1023 73.3245 35.2235 73.7109 35.4659C74.0972 35.7083 74.4012 36.053 74.6228 36.5C74.8444 36.947 74.9552 37.4773 74.9552 38.0909ZM74.2734 38.0909C74.2734 37.5871 74.1891 37.1619 74.0205 36.8153C73.8539 36.4688 73.6275 36.2064 73.3416 36.0284C73.0575 35.8504 72.7393 35.7614 72.387 35.7614C72.0347 35.7614 71.7156 35.8504 71.4296 36.0284C71.1455 36.2064 70.9192 36.4688 70.7507 36.8153C70.584 37.1619 70.5007 37.5871 70.5007 38.0909C70.5007 38.5947 70.584 39.0199 70.7507 39.3665C70.9192 39.7131 71.1455 39.9754 71.4296 40.1534C71.7156 40.3314 72.0347 40.4205 72.387 40.4205C72.7393 40.4205 73.0575 40.3314 73.3416 40.1534C73.6275 39.9754 73.8539 39.7131 74.0205 39.3665C74.1891 39.0199 74.2734 38.5947 74.2734 38.0909ZM76.3799 41V35.1818H79.8685V35.8068H77.0844V37.7727H79.6071V38.3977H77.0844V41H76.3799ZM80.997 35.8068V35.1818H85.3606V35.8068H83.5311V41H82.8265V35.8068H80.997ZM87.7448 41L86.1539 35.1818H86.8698L88.0857 39.9205H88.1425L89.3812 35.1818H90.1766L91.4153 39.9205H91.4721L92.688 35.1818H93.4039L91.813 41H91.0857L89.8016 36.3636H89.7562L88.4721 41H87.7448ZM94.3072 41H93.5686L95.705 35.1818H96.4322L98.5686 41H97.83L96.0913 36.1023H96.0459L94.3072 41ZM94.58 38.7273H97.5572V39.3523H94.58V38.7273ZM99.7149 41V35.1818H101.681C102.135 35.1818 102.508 35.2595 102.8 35.4148C103.092 35.5682 103.308 35.7794 103.448 36.0483C103.588 36.3172 103.658 36.6231 103.658 36.9659C103.658 37.3087 103.588 37.6127 103.448 37.8778C103.308 38.143 103.093 38.3513 102.803 38.5028C102.513 38.6525 102.143 38.7273 101.692 38.7273H100.101V38.0909H101.669C101.98 38.0909 102.23 38.0455 102.419 37.9545C102.611 37.8636 102.749 37.7348 102.834 37.5682C102.921 37.3996 102.965 37.1989 102.965 36.9659C102.965 36.733 102.921 36.5294 102.834 36.3551C102.747 36.1809 102.608 36.0464 102.417 35.9517C102.225 35.8551 101.972 35.8068 101.658 35.8068H100.419V41H99.7149ZM102.453 38.3864L103.885 41H103.067L101.658 38.3864H102.453ZM105.072 41V35.1818H108.583V35.8068H105.777V37.7727H108.402V38.3977H105.777V40.375H108.629V41H105.072ZM117.265 37H116.561C116.519 36.7973 116.446 36.6193 116.342 36.4659C116.24 36.3125 116.115 36.1837 115.967 36.0795C115.821 35.9735 115.659 35.8939 115.481 35.8409C115.303 35.7879 115.117 35.7614 114.924 35.7614C114.572 35.7614 114.253 35.8504 113.967 36.0284C113.683 36.2064 113.456 36.4688 113.288 36.8153C113.121 37.1619 113.038 37.5871 113.038 38.0909C113.038 38.5947 113.121 39.0199 113.288 39.3665C113.456 39.7131 113.683 39.9754 113.967 40.1534C114.253 40.3314 114.572 40.4205 114.924 40.4205C115.117 40.4205 115.303 40.3939 115.481 40.3409C115.659 40.2879 115.821 40.2093 115.967 40.1051C116.115 39.9991 116.24 39.8693 116.342 39.7159C116.446 39.5606 116.519 39.3826 116.561 39.1818H117.265C117.212 39.4792 117.115 39.7453 116.975 39.9801C116.835 40.215 116.661 40.4148 116.453 40.5795C116.244 40.7424 116.01 40.8665 115.751 40.9517C115.493 41.0369 115.218 41.0795 114.924 41.0795C114.428 41.0795 113.987 40.9583 113.6 40.7159C113.214 40.4735 112.91 40.1288 112.688 39.6818C112.467 39.2348 112.356 38.7045 112.356 38.0909C112.356 37.4773 112.467 36.947 112.688 36.5C112.91 36.053 113.214 35.7083 113.6 35.4659C113.987 35.2235 114.428 35.1023 114.924 35.1023C115.218 35.1023 115.493 35.1449 115.751 35.2301C116.01 35.3153 116.244 35.4403 116.453 35.6051C116.661 35.768 116.835 35.9669 116.975 36.2017C117.115 36.4347 117.212 36.7008 117.265 37ZM123.553 38.0909C123.553 38.7045 123.442 39.2348 123.22 39.6818C122.999 40.1288 122.695 40.4735 122.308 40.7159C121.922 40.9583 121.481 41.0795 120.985 41.0795C120.488 41.0795 120.047 40.9583 119.661 40.7159C119.274 40.4735 118.97 40.1288 118.749 39.6818C118.527 39.2348 118.416 38.7045 118.416 38.0909C118.416 37.4773 118.527 36.947 118.749 36.5C118.97 36.053 119.274 35.7083 119.661 35.4659C120.047 35.2235 120.488 35.1023 120.985 35.1023C121.481 35.1023 121.922 35.2235 122.308 35.4659C122.695 35.7083 122.999 36.053 123.22 36.5C123.442 36.947 123.553 37.4773 123.553 38.0909ZM122.871 38.0909C122.871 37.5871 122.787 37.1619 122.618 36.8153C122.451 36.4688 122.225 36.2064 121.939 36.0284C121.655 35.8504 121.337 35.7614 120.985 35.7614C120.632 35.7614 120.313 35.8504 120.027 36.0284C119.743 36.2064 119.517 36.4688 119.348 36.8153C119.181 37.1619 119.098 37.5871 119.098 38.0909C119.098 38.5947 119.181 39.0199 119.348 39.3665C119.517 39.7131 119.743 39.9754 120.027 40.1534C120.313 40.3314 120.632 40.4205 120.985 40.4205C121.337 40.4205 121.655 40.3314 121.939 40.1534C122.225 39.9754 122.451 39.7131 122.618 39.3665C122.787 39.0199 122.871 38.5947 122.871 38.0909ZM129.591 35.1818V41H128.909L125.739 36.4318H125.682V41H124.977V35.1818H125.659L128.841 39.7614H128.898V35.1818H129.591ZM130.923 35.8068V35.1818H135.286V35.8068H133.457V41H132.752V35.8068H130.923ZM136.614 41V35.1818H138.58C139.034 35.1818 139.407 35.2595 139.699 35.4148C139.991 35.5682 140.206 35.7794 140.347 36.0483C140.487 36.3172 140.557 36.6231 140.557 36.9659C140.557 37.3087 140.487 37.6127 140.347 37.8778C140.206 38.143 139.991 38.3513 139.702 38.5028C139.412 38.6525 139.042 38.7273 138.591 38.7273H137V38.0909H138.568C138.879 38.0909 139.129 38.0455 139.318 37.9545C139.509 37.8636 139.648 37.7348 139.733 37.5682C139.82 37.3996 139.864 37.1989 139.864 36.9659C139.864 36.733 139.82 36.5294 139.733 36.3551C139.646 36.1809 139.507 36.0464 139.315 35.9517C139.124 35.8551 138.871 35.8068 138.557 35.8068H137.318V41H136.614ZM139.352 38.3864L140.784 41H139.966L138.557 38.3864H139.352ZM146.88 38.0909C146.88 38.7045 146.769 39.2348 146.548 39.6818C146.326 40.1288 146.022 40.4735 145.636 40.7159C145.249 40.9583 144.808 41.0795 144.312 41.0795C143.815 41.0795 143.374 40.9583 142.988 40.7159C142.601 40.4735 142.298 40.1288 142.076 39.6818C141.854 39.2348 141.744 38.7045 141.744 38.0909C141.744 37.4773 141.854 36.947 142.076 36.5C142.298 36.053 142.601 35.7083 142.988 35.4659C143.374 35.2235 143.815 35.1023 144.312 35.1023C144.808 35.1023 145.249 35.2235 145.636 35.4659C146.022 35.7083 146.326 36.053 146.548 36.5C146.769 36.947 146.88 37.4773 146.88 38.0909ZM146.198 38.0909C146.198 37.5871 146.114 37.1619 145.945 36.8153C145.779 36.4688 145.552 36.2064 145.266 36.0284C144.982 35.8504 144.664 35.7614 144.312 35.7614C143.959 35.7614 143.64 35.8504 143.354 36.0284C143.07 36.2064 142.844 36.4688 142.675 36.8153C142.509 37.1619 142.425 37.5871 142.425 38.0909C142.425 38.5947 142.509 39.0199 142.675 39.3665C142.844 39.7131 143.07 39.9754 143.354 40.1534C143.64 40.3314 143.959 40.4205 144.312 40.4205C144.664 40.4205 144.982 40.3314 145.266 40.1534C145.552 39.9754 145.779 39.7131 145.945 39.3665C146.114 39.0199 146.198 38.5947 146.198 38.0909ZM148.305 41V35.1818H149.009V40.375H151.714V41H148.305ZM157.33 41H155.535V35.1818H157.41C157.974 35.1818 158.457 35.2983 158.858 35.5312C159.26 35.7623 159.568 36.0947 159.782 36.5284C159.996 36.9602 160.103 37.4773 160.103 38.0795C160.103 38.6856 159.995 39.2074 159.779 39.6449C159.563 40.0805 159.249 40.4157 158.836 40.6506C158.423 40.8835 157.921 41 157.33 41ZM156.239 40.375H157.285C157.766 40.375 158.164 40.2822 158.481 40.0966C158.797 39.911 159.033 39.6468 159.188 39.304C159.343 38.9612 159.421 38.553 159.421 38.0795C159.421 37.6098 159.344 37.2055 159.191 36.8665C159.037 36.5256 158.808 36.2642 158.503 36.0824C158.198 35.8987 157.819 35.8068 157.364 35.8068H156.239V40.375ZM161.525 41V35.1818H165.036V35.8068H162.229V37.7727H164.854V38.3977H162.229V40.375H165.081V41H161.525ZM169.036 41V35.1818H171.002C171.458 35.1818 171.831 35.2642 172.121 35.429C172.413 35.5919 172.629 35.8125 172.769 36.0909C172.909 36.3693 172.979 36.6799 172.979 37.0227C172.979 37.3655 172.909 37.6771 172.769 37.9574C172.63 38.2377 172.416 38.4612 172.127 38.6278C171.837 38.7926 171.466 38.875 171.013 38.875H169.604V38.25H170.99C171.303 38.25 171.554 38.196 171.743 38.0881C171.933 37.9801 172.07 37.8343 172.155 37.6506C172.242 37.465 172.286 37.2557 172.286 37.0227C172.286 36.7898 172.242 36.5814 172.155 36.3977C172.07 36.214 171.932 36.0701 171.74 35.9659C171.549 35.8598 171.295 35.8068 170.979 35.8068H169.74V41H169.036ZM174.354 41V35.1818H176.32C176.774 35.1818 177.147 35.2595 177.439 35.4148C177.731 35.5682 177.947 35.7794 178.087 36.0483C178.227 36.3172 178.297 36.6231 178.297 36.9659C178.297 37.3087 178.227 37.6127 178.087 37.8778C177.947 38.143 177.732 38.3513 177.442 38.5028C177.152 38.6525 176.782 38.7273 176.331 38.7273H174.74V38.0909H176.308C176.619 38.0909 176.869 38.0455 177.058 37.9545C177.25 37.8636 177.388 37.7348 177.473 37.5682C177.56 37.3996 177.604 37.1989 177.604 36.9659C177.604 36.733 177.56 36.5294 177.473 36.3551C177.386 36.1809 177.247 36.0464 177.056 35.9517C176.864 35.8551 176.611 35.8068 176.297 35.8068H175.058V41H174.354ZM177.093 38.3864L178.524 41H177.706L176.297 38.3864H177.093ZM184.62 38.0909C184.62 38.7045 184.509 39.2348 184.288 39.6818C184.066 40.1288 183.762 40.4735 183.376 40.7159C182.99 40.9583 182.548 41.0795 182.052 41.0795C181.556 41.0795 181.115 40.9583 180.728 40.7159C180.342 40.4735 180.038 40.1288 179.816 39.6818C179.595 39.2348 179.484 38.7045 179.484 38.0909C179.484 37.4773 179.595 36.947 179.816 36.5C180.038 36.053 180.342 35.7083 180.728 35.4659C181.115 35.2235 181.556 35.1023 182.052 35.1023C182.548 35.1023 182.99 35.2235 183.376 35.4659C183.762 35.7083 184.066 36.053 184.288 36.5C184.509 36.947 184.62 37.4773 184.62 38.0909ZM183.938 38.0909C183.938 37.5871 183.854 37.1619 183.686 36.8153C183.519 36.4688 183.293 36.2064 183.007 36.0284C182.722 35.8504 182.404 35.7614 182.052 35.7614C181.7 35.7614 181.381 35.8504 181.095 36.0284C180.811 36.2064 180.584 36.4688 180.416 36.8153C180.249 37.1619 180.166 37.5871 180.166 38.0909C180.166 38.5947 180.249 39.0199 180.416 39.3665C180.584 39.7131 180.811 39.9754 181.095 40.1534C181.381 40.3314 181.7 40.4205 182.052 40.4205C182.404 40.4205 182.722 40.3314 183.007 40.1534C183.293 39.9754 183.519 39.7131 183.686 39.3665C183.854 39.0199 183.938 38.5947 183.938 38.0909ZM187.84 41H186.045V35.1818H187.92C188.484 35.1818 188.967 35.2983 189.369 35.5312C189.77 35.7623 190.078 36.0947 190.292 36.5284C190.506 36.9602 190.613 37.4773 190.613 38.0795C190.613 38.6856 190.505 39.2074 190.289 39.6449C190.073 40.0805 189.759 40.4157 189.346 40.6506C188.933 40.8835 188.431 41 187.84 41ZM186.749 40.375H187.795C188.276 40.375 188.675 40.2822 188.991 40.0966C189.307 39.911 189.543 39.6468 189.698 39.304C189.854 38.9612 189.931 38.553 189.931 38.0795C189.931 37.6098 189.855 37.2055 189.701 36.8665C189.548 36.5256 189.319 36.2642 189.014 36.0824C188.709 35.8987 188.329 35.8068 187.874 35.8068H186.749V40.375ZM195.853 35.1818H196.558V39.0341C196.558 39.4318 196.464 39.7869 196.276 40.0994C196.091 40.41 195.828 40.6553 195.489 40.8352C195.15 41.0133 194.753 41.1023 194.296 41.1023C193.84 41.1023 193.442 41.0133 193.103 40.8352C192.764 40.6553 192.501 40.41 192.313 40.0994C192.128 39.7869 192.035 39.4318 192.035 39.0341V35.1818H192.739V38.9773C192.739 39.2614 192.802 39.5142 192.927 39.7358C193.052 39.9555 193.23 40.1288 193.461 40.2557C193.694 40.3807 193.972 40.4432 194.296 40.4432C194.62 40.4432 194.898 40.3807 195.131 40.2557C195.364 40.1288 195.542 39.9555 195.666 39.7358C195.791 39.5142 195.853 39.2614 195.853 38.9773V35.1818ZM202.886 37H202.182C202.14 36.7973 202.067 36.6193 201.963 36.4659C201.861 36.3125 201.736 36.1837 201.588 36.0795C201.442 35.9735 201.28 35.8939 201.102 35.8409C200.924 35.7879 200.739 35.7614 200.545 35.7614C200.193 35.7614 199.874 35.8504 199.588 36.0284C199.304 36.2064 199.078 36.4688 198.909 36.8153C198.742 37.1619 198.659 37.5871 198.659 38.0909C198.659 38.5947 198.742 39.0199 198.909 39.3665C199.078 39.7131 199.304 39.9754 199.588 40.1534C199.874 40.3314 200.193 40.4205 200.545 40.4205C200.739 40.4205 200.924 40.3939 201.102 40.3409C201.28 40.2879 201.442 40.2093 201.588 40.1051C201.736 39.9991 201.861 39.8693 201.963 39.7159C202.067 39.5606 202.14 39.3826 202.182 39.1818H202.886C202.833 39.4792 202.737 39.7453 202.597 39.9801C202.456 40.215 202.282 40.4148 202.074 40.5795C201.866 40.7424 201.632 40.8665 201.372 40.9517C201.115 41.0369 200.839 41.0795 200.545 41.0795C200.049 41.0795 199.608 40.9583 199.222 40.7159C198.835 40.4735 198.531 40.1288 198.31 39.6818C198.088 39.2348 197.977 38.7045 197.977 38.0909C197.977 37.4773 198.088 36.947 198.31 36.5C198.531 36.053 198.835 35.7083 199.222 35.4659C199.608 35.2235 200.049 35.1023 200.545 35.1023C200.839 35.1023 201.115 35.1449 201.372 35.2301C201.632 35.3153 201.866 35.4403 202.074 35.6051C202.282 35.768 202.456 35.9669 202.597 36.2017C202.737 36.4347 202.833 36.7008 202.886 37ZM208.947 37H208.242C208.2 36.7973 208.128 36.6193 208.023 36.4659C207.921 36.3125 207.796 36.1837 207.648 36.0795C207.503 35.9735 207.341 35.8939 207.163 35.8409C206.985 35.7879 206.799 35.7614 206.606 35.7614C206.253 35.7614 205.934 35.8504 205.648 36.0284C205.364 36.2064 205.138 36.4688 204.969 36.8153C204.803 37.1619 204.719 37.5871 204.719 38.0909C204.719 38.5947 204.803 39.0199 204.969 39.3665C205.138 39.7131 205.364 39.9754 205.648 40.1534C205.934 40.3314 206.253 40.4205 206.606 40.4205C206.799 40.4205 206.985 40.3939 207.163 40.3409C207.341 40.2879 207.503 40.2093 207.648 40.1051C207.796 39.9991 207.921 39.8693 208.023 39.7159C208.128 39.5606 208.2 39.3826 208.242 39.1818H208.947C208.894 39.4792 208.797 39.7453 208.657 39.9801C208.517 40.215 208.343 40.4148 208.134 40.5795C207.926 40.7424 207.692 40.8665 207.432 40.9517C207.175 41.0369 206.899 41.0795 206.606 41.0795C206.11 41.0795 205.668 40.9583 205.282 40.7159C204.896 40.4735 204.592 40.1288 204.37 39.6818C204.148 39.2348 204.038 38.7045 204.038 38.0909C204.038 37.4773 204.148 36.947 204.37 36.5C204.592 36.053 204.896 35.7083 205.282 35.4659C205.668 35.2235 206.11 35.1023 206.606 35.1023C206.899 35.1023 207.175 35.1449 207.432 35.2301C207.692 35.3153 207.926 35.4403 208.134 35.6051C208.343 35.768 208.517 35.9669 208.657 36.2017C208.797 36.4347 208.894 36.7008 208.947 37ZM211.03 35.1818V41H210.325V35.1818H211.03ZM217.591 38.0909C217.591 38.7045 217.481 39.2348 217.259 39.6818C217.037 40.1288 216.733 40.4735 216.347 40.7159C215.961 40.9583 215.519 41.0795 215.023 41.0795C214.527 41.0795 214.086 40.9583 213.699 40.7159C213.313 40.4735 213.009 40.1288 212.787 39.6818C212.566 39.2348 212.455 38.7045 212.455 38.0909C212.455 37.4773 212.566 36.947 212.787 36.5C213.009 36.053 213.313 35.7083 213.699 35.4659C214.086 35.2235 214.527 35.1023 215.023 35.1023C215.519 35.1023 215.961 35.2235 216.347 35.4659C216.733 35.7083 217.037 36.053 217.259 36.5C217.481 36.947 217.591 37.4773 217.591 38.0909ZM216.91 38.0909C216.91 37.5871 216.825 37.1619 216.657 36.8153C216.49 36.4688 216.264 36.2064 215.978 36.0284C215.694 35.8504 215.376 35.7614 215.023 35.7614C214.671 35.7614 214.352 35.8504 214.066 36.0284C213.782 36.2064 213.555 36.4688 213.387 36.8153C213.22 37.1619 213.137 37.5871 213.137 38.0909C213.137 38.5947 213.22 39.0199 213.387 39.3665C213.555 39.7131 213.782 39.9754 214.066 40.1534C214.352 40.3314 214.671 40.4205 215.023 40.4205C215.376 40.4205 215.694 40.3314 215.978 40.1534C216.264 39.9754 216.49 39.7131 216.657 39.3665C216.825 39.0199 216.91 38.5947 216.91 38.0909ZM214.716 34.5909L215.41 33.2727H216.194L215.307 34.5909H214.716ZM223.63 35.1818V41H222.948L219.777 36.4318H219.721V41H219.016V35.1818H219.698L222.88 39.7614H222.937V35.1818H223.63Z" fill="black"/>
<circle cx="35.8513" cy="20.5" r="20.5" fill="url(#paint0_linear_33_66)"/>
<circle cx="35.8513" cy="20.5" r="18.2838" fill="white"/>
<path d="M0 11L30.9474 18.6774L63 28L8.28947 18.6774L0 11Z" fill="#BC202A"/>
<path d="M39.9412 4L41 11.2558L37.2941 19.0698L32 28L39.9412 4Z" fill="black"/>
<circle cx="41.5" cy="19.5" r="1.5" fill="#F418A0"/>
<ellipse cx="29.5" cy="27" rx="1.5" ry="2" fill="#31D3E8"/>
<circle cx="45.5" cy="17.5" r="1.5" fill="black"/>
<circle cx="37" cy="27" r="2" fill="#F8F406"/>
<defs>
<linearGradient id="paint0_linear_33_66" x1="35.8513" y1="0" x2="35.8513" y2="41" gradientUnits="userSpaceOnUse">
<stop offset="0.121622" stop-color="#000C68"/>
<stop offset="0.317568" stop-color="#005C90"/>
<stop offset="0.510417" stop-color="#D84814"/>
<stop offset="0.692708" stop-color="#E8A83C"/>
<stop offset="0.875" stop-color="#64B630"/>
</linearGradient>
</defs>
</svg>
